<svg width="1870" height="2166" viewBox="0 0 1870 2166" fill="none" xmlns="http://www.w3.org/2000/svg">
<g clip-path="url(#clip0_2004_8)">
<g opacity="0.24">
<path opacity="0.4" d="M-294.032 675.155C-294.032 690.661 -281.462 703.23 -265.957 703.23C-250.452 703.23 -237.882 690.661 -237.882 675.155C-237.882 659.65 -250.452 647.08 -265.957 647.08C-281.462 647.08 -294.032 659.65 -294.032 675.155ZM633.151 -37.3132L637.195 -33.9434L644.778 -43.0433L632.942 -42.5731L633.151 -37.3132ZM116.634 1032.21L111.489 1033.33L111.489 1033.33L116.634 1032.21ZM1461.51 650.554L1462.09 645.322L1461.51 650.554ZM2332.73 79.3784L2337.57 81.4307L2328.42 76.3473L2332.73 79.3784ZM748.885 1142.76L748.42 1137.52L748.885 1142.76ZM1538.66 13.5748L1533.97 15.9555L1538.66 13.5748ZM31.9765 1436.69L27.5833 1433.79L20.7746 1444.1L32.9297 1441.86L31.9765 1436.69ZM2228.78 1032.21L2229.73 1037.39L2228.02 1027.01L2228.78 1032.21ZM-265.957 675.155L-267.46 680.2C-180.038 706.252 -74.859 685.122 28.5975 597.813C131.973 510.573 233.812 357.175 315.438 117.99L310.456 116.289L305.474 114.589C224.215 352.699 123.227 504.177 21.8075 589.767C-79.5311 675.289 -181.116 694.945 -264.454 670.11L-265.957 675.155ZM310.456 116.289L315.438 117.99C356.153 -1.31702 388.178 -69.527 415.155 -105.152C428.621 -122.936 440.434 -132.06 450.922 -135.699C461.164 -139.253 470.85 -137.818 480.831 -132.817C491.001 -127.722 501.217 -119.043 512.089 -108.474C517.497 -103.217 522.967 -97.5948 528.629 -91.8082C534.271 -86.0429 540.087 -80.1321 546.094 -74.4024C569.955 -51.6444 597.909 -30.6451 633.359 -32.0533L633.151 -37.3132L632.942 -42.5731C602.131 -41.3492 576.978 -59.4954 553.36 -82.0209C547.498 -87.6119 541.796 -93.4056 536.154 -99.1715C530.533 -104.916 524.953 -110.652 519.428 -116.023C508.434 -126.71 497.251 -136.366 485.547 -142.23C473.654 -148.189 460.992 -150.338 447.47 -145.645C434.195 -141.039 420.829 -130.086 406.761 -111.508C378.669 -74.4081 346.201 -4.75194 305.474 114.589L310.456 116.289ZM633.151 -37.3132L629.107 -40.6831C530.004 78.2448 385.239 274.48 272.934 476.822C216.782 577.991 168.665 680.829 138.452 776.39C108.271 871.848 95.7743 960.597 111.489 1033.33L116.634 1032.21L121.779 1031.1C106.631 960.994 118.531 874.318 148.49 779.564C178.416 684.912 226.182 582.749 282.139 481.931C394.051 280.297 538.407 84.6065 637.195 -33.9434L633.151 -37.3132ZM116.634 1032.21L111.489 1033.33C116.274 1055.48 118.821 1073.36 119.513 1087.37C120.21 1101.48 118.996 1111.21 116.636 1117.34C114.364 1123.24 111.399 1125.08 108.387 1125.39C104.715 1125.76 99.2193 1124.08 91.8298 1118.98C77.2322 1108.9 58.5748 1087.81 38.5048 1057.78C18.5274 1027.88 -2.5641 989.567 -22.1521 945.518C-61.3408 857.391 -94.3511 746.677 -100.536 635.004C-106.722 523.336 -86.0731 411.111 -18.439 319.396L-22.6756 316.271L-26.9123 313.147C-96.4444 407.436 -117.321 522.344 -111.048 635.586C-104.776 748.825 -71.3468 860.801 -31.772 949.796C-11.9783 994.307 9.39285 1033.16 29.7515 1063.62C50.0176 1093.95 69.5699 1116.4 85.8481 1127.64C93.8965 1133.2 102.005 1136.62 109.454 1135.86C117.561 1135.04 123.232 1129.51 126.46 1121.13C129.601 1112.97 130.752 1101.51 130.028 1086.85C129.299 1072.08 126.638 1053.59 121.779 1031.1L116.634 1032.21ZM-22.6756 316.271L-18.439 319.396C15.3367 273.594 54.1031 243.548 97.1924 225.967C140.319 208.369 188.08 203.135 239.988 207.43C343.996 216.037 463.831 262.81 594.629 323.676C725.002 384.344 866.59 459.185 1012.46 522.703C1158.54 586.314 1309.86 639.03 1460.93 655.785L1461.51 650.554L1462.09 645.322C1312.56 628.737 1162.36 576.496 1016.66 513.051C870.751 449.514 730.304 375.199 599.071 314.131C468.262 253.26 346.917 205.715 240.856 196.938C187.729 192.542 138.232 197.85 93.215 216.219C48.1602 234.603 7.89521 265.946 -26.9123 313.147L-22.6756 316.271ZM1461.51 650.554L1460.93 655.785C1703.16 682.654 1899.85 592.302 2047.1 468.735C2194.26 345.241 2292.29 188.393 2337.57 81.4307L2332.73 79.3784L2327.88 77.3261C2283.15 182.983 2186.04 338.394 2040.33 460.67C1894.71 582.871 1700.79 671.798 1462.09 645.322L1461.51 650.554ZM2332.73 79.3784L2328.42 76.3473C2213.14 240.028 1995.63 489.695 1718.05 706.285C1440.42 922.912 1103.2 1106.06 748.42 1137.52L748.885 1142.76L749.349 1148.01C1106.98 1116.3 1446.12 931.823 1724.53 714.585C2002.99 497.309 2221.2 246.869 2337.03 82.4096L2332.73 79.3784ZM748.885 1142.76L748.42 1137.52C692.873 1142.45 648.449 1144.24 613.872 1143.17C579.185 1142.11 554.846 1138.18 539.202 1131.96C523.652 1125.78 517.911 1117.91 517.468 1109.26C516.981 1099.76 522.619 1087.16 535.368 1071.29C560.635 1039.83 610.363 999.657 675.507 952.613C740.512 905.671 820.269 852.302 905.223 794.407C1074.95 678.743 1265.29 545.105 1397.77 409.859C1464.01 342.24 1516.1 273.906 1543.83 206.901C1571.62 139.746 1575.02 73.6455 1543.36 11.1942L1538.66 13.5748L1533.97 15.9555C1563.92 75.0214 1561.03 137.813 1534.1 202.876C1507.11 268.088 1456.07 335.296 1390.25 402.492C1258.61 536.876 1069.14 669.962 899.294 785.707C814.465 843.517 734.502 897.024 669.344 944.078C604.325 991.03 553.447 1031.97 527.16 1064.7C514.131 1080.92 506.255 1096.18 506.953 1109.8C507.695 1124.27 517.838 1134.79 535.31 1141.74C552.687 1148.66 578.505 1152.62 613.549 1153.7C648.703 1154.78 693.583 1152.95 749.349 1148.01L748.885 1142.76ZM1538.66 13.5748L1543.36 11.1942C1518 -38.8068 1481.06 -64.2604 1435 -68.2662C1389.44 -72.228 1335.76 -55.1339 1276.57 -22.2051C1158.12 43.6994 1014.85 174.615 865.035 337.094C565.245 662.227 237.69 1115.48 27.5833 1433.79L31.9765 1436.69L36.3698 1439.59C246.335 1121.5 573.534 668.769 872.775 344.231C1022.48 181.875 1164.79 52.0322 1281.69 -13.0051C1340.18 -45.5472 1391.62 -61.4701 1434.08 -57.7777C1476.04 -54.1292 1510.03 -31.2574 1533.97 15.9555L1538.66 13.5748ZM31.9765 1436.69L32.9297 1441.86L2229.73 1037.39L2228.78 1032.21L2227.83 1027.04L31.0234 1431.51L31.9765 1436.69ZM2228.78 1032.21L2228.02 1027.01C1795.37 1090.28 1171.11 1114.43 703.815 981.724C470.156 915.368 276.531 810.017 165.368 651.536C54.411 493.347 24.9207 281.205 121.613 -0.509398L116.634 -2.21831L111.655 -3.92721C14.171 280.094 43.3783 495.952 156.749 657.582C269.915 818.919 466.249 925.203 700.939 991.851C1170.34 1125.15 1796.32 1100.78 2229.54 1037.42L2228.78 1032.21Z" fill="white"/>
<g opacity="0.1" filter="url(#filter0_f_2004_8)">
<path d="M1268.96 -753.254C1185.85 -664.296 1102.62 -391.453 1434.53 -11.743C1766.44 367.967 1726.01 697.695 1664.31 815.095C1557.59 524.978 1274.59 -77.603 996.328 -166.985C648.497 -278.713 1501 -353.243 1686.01 70.3406C1871.01 493.924 1012.75 701.247 654.42 1188.54C367.752 1578.37 574.336 2044.36 713.462 2228.62C544.839 1864.41 282.968 973.833 584.463 325.285C961.333 -485.401 623.298 1544.26 1167.48 1573.85C1602.83 1597.51 1029.47 239.452 688.373 -442.537L-59.7452 1662.19C263.517 849.01 1106.47 -551.827 1892.17 350.231" stroke="white" stroke-width="10.5281"/>
</g>
<path opacity="0.05" d="M1749.31 -534.27C1736.66 -413.192 1585.28 -171.415 1080.96 -172.929C576.642 -174.443 354.252 72.3308 306.097 195.907C595.092 86.1883 1235.58 -95.3901 1485.55 56.0442C1798.02 245.337 1295.16 -447.086 854.066 -308.929C412.974 -170.773 819.367 613.084 686.537 1203.18C580.273 1675.26 93.0167 1824.93 -137.328 1840.76C248.206 1729.18 1092.23 1342.77 1384.07 689.814C1748.87 -126.375 438.419 1459.98 59.1775 1068.59C-244.216 755.475 1157 297.592 1895.54 107.79L797.382 2052.94C1199.22 1275.58 1703.83 -279.5 507.566 -280.991" stroke="white" stroke-width="10.5281"/>
</g>
</g>
<defs>
<filter id="filter0_f_2004_8" x="-71.5051" y="-763.647" width="1974.45" height="3002.24" filterUnits="userSpaceOnUse" color-interpolation-filters="sRGB">
<feFlood flood-opacity="0" result="BackgroundImageFix"/>
<feBlend mode="normal" in="SourceGraphic" in2="BackgroundImageFix" result="shape"/>
<feGaussianBlur stdDeviation="3.4" result="effect1_foregroundBlur_2004_8"/>
</filter>
<clipPath id="clip0_2004_8">
<rect width="1870" height="2166" fill="white"/>
</clipPath>
</defs>
</svg>
