<svg width="1155" height="340" viewBox="0 0 1155 340" fill="none" xmlns="http://www.w3.org/2000/svg">
<g filter="url(#filter0_n_59_29)">
<path d="M23.2801 35.405C23.2801 34.1116 22.6334 33.465 21.3401 33.465H3.39511C1.45511 33.465 0.485105 32.495 0.485105 30.555V2.91C0.485105 0.969984 1.45511 -2.31266e-05 3.39511 -2.31266e-05H61.1101C63.0501 -2.31266e-05 64.0201 1.13165 64.0201 3.39499C63.6968 7.27498 63.0501 14.3883 62.0801 24.735C61.4334 34.7583 60.6251 46.7216 59.6551 60.625C58.6851 74.5283 57.5534 89.8867 56.2601 106.7C54.9668 123.19 53.6734 140.003 52.3801 157.14C51.0868 174.277 49.7934 191.09 48.5001 207.58C47.5301 223.747 46.5601 238.62 45.5901 252.2C44.6201 265.457 43.8118 276.773 43.1651 286.15C42.5184 295.203 42.0334 301.185 41.7101 304.095C41.7101 305.388 42.1951 306.035 43.1651 306.035H61.1101C63.3734 306.035 64.5051 307.005 64.5051 308.945V336.59C64.5051 338.53 63.3734 339.5 61.1101 339.5H3.88011C1.29344 339.5 0.323438 338.368 0.970105 336.105C1.29344 332.225 1.77844 325.273 2.42511 315.25C3.07177 304.903 3.88011 292.778 4.85011 278.875C5.82011 264.972 6.95177 249.775 8.24511 233.285C9.53844 216.472 10.8318 199.497 12.1251 182.36C13.4184 165.223 14.7118 148.572 16.0051 132.405C17.2984 115.915 18.4301 101.042 19.4001 87.785C20.3701 74.205 21.1784 62.8883 21.8251 53.835C22.4718 44.4583 22.9568 38.315 23.2801 35.405ZM114.775 186.725C114.128 186.725 113.32 187.048 112.35 187.695C111.703 188.018 111.38 189.312 111.38 191.575V336.105C111.38 338.368 110.248 339.5 107.985 339.5H75.9746C74.0346 339.5 73.0646 338.692 73.0646 337.075C73.0646 332.872 73.2263 325.435 73.5496 314.765C73.8729 303.772 74.1963 290.838 74.5196 275.965C74.8429 260.768 75.1663 244.117 75.4896 226.01C76.1363 207.58 76.6213 188.988 76.9446 170.235C77.2679 151.482 77.5913 133.052 77.9146 114.945C78.5613 96.515 78.8846 79.8633 78.8846 64.99C79.2079 49.7933 79.5313 36.86 79.8546 26.19C80.1779 15.1967 80.3396 7.75999 80.3396 3.87998C80.6629 1.29331 81.7946 -2.31266e-05 83.7346 -2.31266e-05H147.755C150.018 -2.31266e-05 151.15 0.969984 151.15 2.91C151.15 6.78999 151.15 14.2267 151.15 25.22C151.473 35.89 151.796 48.8233 152.12 64.02C152.443 79.2167 152.766 95.8683 153.09 113.975C153.413 132.082 153.736 150.673 154.06 169.75C154.383 188.503 154.706 206.933 155.03 225.04C155.353 243.147 155.676 259.798 156 274.995C156.323 290.192 156.485 303.287 156.485 314.28C156.808 324.95 156.97 332.225 156.97 336.105C156.97 338.368 155.838 339.5 153.575 339.5H122.05C119.786 339.5 118.655 338.368 118.655 336.105V191.575C118.655 189.635 118.17 188.342 117.2 187.695C116.23 187.048 115.421 186.725 114.775 186.725ZM114.775 152.775C117.361 152.775 118.655 151.32 118.655 148.41V38.315C118.655 35.0816 117.361 33.465 114.775 33.465C112.511 33.465 111.38 35.0816 111.38 38.315V148.41C111.38 151.32 112.511 152.775 114.775 152.775ZM182.027 339.5C179.763 339.5 178.632 338.53 178.632 336.59C178.632 332.71 178.308 325.435 177.662 314.765C177.338 303.772 176.853 290.838 176.207 275.965C175.883 260.768 175.398 244.117 174.752 226.01C174.105 207.58 173.297 188.988 172.327 170.235C171.68 151.482 171.033 133.052 170.387 114.945C169.74 96.515 169.093 79.8633 168.447 64.99C167.8 49.7933 167.315 36.86 166.992 26.19C166.668 15.1967 166.345 7.59833 166.022 3.39499C166.022 1.13165 166.992 -2.31266e-05 168.932 -2.31266e-05H201.427C203.367 -2.31266e-05 204.337 0.969984 204.337 2.91C204.337 7.11331 204.337 15.1966 204.337 27.16C204.66 39.1233 204.983 52.865 205.307 68.385C205.63 83.905 205.792 100.395 205.792 117.855C206.115 135.315 206.438 151.805 206.762 167.325C207.085 182.522 207.247 195.778 207.247 207.095C207.57 218.412 207.732 226.01 207.732 229.89C207.732 230.537 207.893 231.345 208.217 232.315C208.54 233.285 209.025 233.77 209.672 233.77C210.965 233.77 211.612 233.285 211.612 232.315C211.935 231.345 212.097 230.537 212.097 229.89C212.097 226.01 212.097 218.412 212.097 207.095C212.42 195.455 212.743 182.037 213.067 166.84C213.39 151.32 213.552 134.992 213.552 117.855C213.875 100.395 214.037 83.905 214.037 68.385C214.36 52.865 214.522 39.1233 214.522 27.16C214.845 15.1966 215.007 7.11331 215.007 2.91C215.007 0.969984 216.138 -2.31266e-05 218.402 -2.31266e-05H250.412C252.998 -2.31266e-05 253.968 1.29331 253.322 3.87998C253.322 8.08332 252.998 15.6817 252.352 26.675C252.028 37.345 251.543 50.2783 250.897 65.475C250.573 80.3483 250.088 97 249.442 115.43C248.795 133.537 248.148 151.967 247.502 170.72C247.178 189.473 246.693 207.903 246.047 226.01C245.4 244.117 244.753 260.768 244.107 275.965C243.783 290.838 243.298 303.772 242.652 314.765C242.328 325.435 242.167 332.71 242.167 336.59C242.167 338.53 241.035 339.5 238.772 339.5H182.027ZM304.455 186.725C303.808 186.725 303 187.048 302.03 187.695C301.383 188.018 301.06 189.312 301.06 191.575V336.105C301.06 338.368 299.928 339.5 297.665 339.5H265.655C263.715 339.5 262.745 338.692 262.745 337.075C262.745 332.872 262.907 325.435 263.23 314.765C263.553 303.772 263.877 290.838 264.2 275.965C264.523 260.768 264.847 244.117 265.17 226.01C265.817 207.58 266.302 188.988 266.625 170.235C266.948 151.482 267.272 133.052 267.595 114.945C268.242 96.515 268.565 79.8633 268.565 64.99C268.888 49.7933 269.212 36.86 269.535 26.19C269.858 15.1967 270.02 7.75999 270.02 3.87998C270.343 1.29331 271.475 -2.31266e-05 273.415 -2.31266e-05H337.435C339.698 -2.31266e-05 340.83 0.969984 340.83 2.91C340.83 6.78999 340.83 14.2267 340.83 25.22C341.153 35.89 341.477 48.8233 341.8 64.02C342.123 79.2167 342.447 95.8683 342.77 113.975C343.093 132.082 343.417 150.673 343.74 169.75C344.063 188.503 344.387 206.933 344.71 225.04C345.033 243.147 345.357 259.798 345.68 274.995C346.003 290.192 346.165 303.287 346.165 314.28C346.488 324.95 346.65 332.225 346.65 336.105C346.65 338.368 345.518 339.5 343.255 339.5H311.73C309.467 339.5 308.335 338.368 308.335 336.105V191.575C308.335 189.635 307.85 188.342 306.88 187.695C305.91 187.048 305.102 186.725 304.455 186.725ZM304.455 152.775C307.042 152.775 308.335 151.32 308.335 148.41V38.315C308.335 35.0816 307.042 33.465 304.455 33.465C302.192 33.465 301.06 35.0816 301.06 38.315V148.41C301.06 151.32 302.192 152.775 304.455 152.775ZM404.687 339.5C402.747 339.5 401.777 338.53 401.777 336.59V191.575C401.777 188.342 400.645 186.725 398.382 186.725C395.795 186.725 394.502 188.342 394.502 191.575V336.59C394.502 338.53 393.532 339.5 391.592 339.5H359.097C357.157 339.5 356.187 338.53 356.187 336.59V2.91C356.187 0.969984 357.157 -2.31266e-05 359.097 -2.31266e-05H421.662C426.835 -2.31266e-05 431.2 1.77832 434.757 5.33499C438.314 8.89165 440.092 13.2566 440.092 18.43V148.41C440.092 151.967 439.607 155.685 438.637 159.565C437.99 163.445 436.212 166.355 433.302 168.295C431.685 169.265 431.847 170.235 433.787 171.205C437.344 173.145 439.284 176.217 439.607 180.42C439.93 184.623 440.092 187.695 440.092 189.635V336.59C440.092 338.53 439.122 339.5 437.182 339.5H404.687ZM398.382 33.465C395.795 33.465 394.502 35.0816 394.502 38.315V147.925C394.502 151.158 395.795 152.775 398.382 152.775C399.029 152.775 399.675 152.452 400.322 151.805C401.292 151.158 401.777 149.865 401.777 147.925V38.315C401.777 35.0816 400.645 33.465 398.382 33.465ZM472.852 35.405C472.852 34.1116 472.206 33.465 470.912 33.465H452.967C451.027 33.465 450.057 32.495 450.057 30.555V2.91C450.057 0.969984 451.027 -2.31266e-05 452.967 -2.31266e-05H510.682C512.622 -2.31266e-05 513.592 1.13165 513.592 3.39499C513.269 7.27498 512.622 14.3883 511.652 24.735C511.006 34.7583 510.197 46.7216 509.227 60.625C508.257 74.5283 507.126 89.8867 505.832 106.7C504.539 123.19 503.246 140.003 501.952 157.14C500.659 174.277 499.366 191.09 498.072 207.58C497.102 223.747 496.132 238.62 495.162 252.2C494.192 265.457 493.384 276.773 492.737 286.15C492.091 295.203 491.606 301.185 491.282 304.095C491.282 305.388 491.767 306.035 492.737 306.035H510.682C512.946 306.035 514.077 307.005 514.077 308.945V336.59C514.077 338.53 512.946 339.5 510.682 339.5H453.452C450.866 339.5 449.896 338.368 450.542 336.105C450.866 332.225 451.351 325.273 451.997 315.25C452.644 304.903 453.452 292.778 454.422 278.875C455.392 264.972 456.524 249.775 457.817 233.285C459.111 216.472 460.404 199.497 461.697 182.36C462.991 165.223 464.284 148.572 465.577 132.405C466.871 115.915 468.002 101.042 468.972 87.785C469.942 74.205 470.751 62.8883 471.397 53.835C472.044 44.4583 472.529 38.315 472.852 35.405ZM523.607 336.59V2.91C523.607 0.969984 524.577 -2.31266e-05 526.517 -2.31266e-05H559.012C560.952 -2.31266e-05 561.922 0.969984 561.922 2.91V336.59C561.922 338.53 560.952 339.5 559.012 339.5H526.517C524.577 339.5 523.607 338.53 523.607 336.59ZM608.383 -2.31266e-05C610.647 -2.31266e-05 611.778 0.969984 611.778 2.91C612.102 6.14333 612.587 11.8017 613.233 19.885C614.203 27.645 615.173 36.6983 616.143 47.045C617.113 57.3916 618.083 68.2233 619.053 79.54C620.347 90.8566 621.478 101.688 622.448 112.035C623.418 122.058 624.227 130.95 624.873 138.71C625.52 146.147 626.005 151.32 626.328 154.23C626.652 154.877 626.975 155.847 627.298 157.14C627.622 158.433 628.268 159.08 629.238 159.08C630.208 158.757 630.693 158.11 630.693 157.14C631.017 155.847 631.178 154.877 631.178 154.23C631.178 150.673 631.017 145.015 630.693 137.255C630.693 129.172 630.532 120.118 630.208 110.095C629.885 100.072 629.4 89.5633 628.753 78.57C628.43 67.5767 628.107 57.0683 627.783 47.045C627.46 37.0217 627.137 28.2917 626.813 20.855C626.49 13.095 626.328 7.43664 626.328 3.87998C626.005 1.29331 626.975 -2.31266e-05 629.238 -2.31266e-05H661.248C663.512 -2.31266e-05 664.643 0.969984 664.643 2.91V336.59C664.643 338.53 663.512 339.5 661.248 339.5H628.753C627.137 339.5 626.005 338.53 625.358 336.59C625.035 333.357 624.55 327.86 623.903 320.1C623.257 312.017 622.448 302.802 621.478 292.455C620.508 282.108 619.538 271.277 618.568 259.96C617.598 248.643 616.628 237.973 615.658 227.95C615.012 217.927 614.365 209.197 613.718 201.76C613.072 194 612.587 188.827 612.263 186.24C611.94 183.33 611.132 181.875 609.838 181.875C608.545 181.875 607.898 183.33 607.898 186.24C607.898 189.15 607.898 194.485 607.898 202.245C608.222 209.682 608.383 218.412 608.383 228.435C608.707 238.458 609.03 249.128 609.353 260.445C609.677 271.438 610 282.108 610.323 292.455C610.647 302.478 610.808 311.532 610.808 319.615C611.132 327.375 611.293 332.872 611.293 336.105C611.293 338.368 610.323 339.5 608.383 339.5H575.888C573.948 339.5 572.978 338.53 572.978 336.59V2.91C572.978 0.969984 573.948 -2.31266e-05 575.888 -2.31266e-05H608.383ZM746.438 -2.31266e-05C748.701 -2.31266e-05 749.833 0.969984 749.833 2.91C750.156 6.14333 750.641 11.8017 751.288 19.885C752.258 27.645 753.228 36.6983 754.198 47.045C755.168 57.3916 756.138 68.2233 757.108 79.54C758.401 90.8566 759.533 101.688 760.503 112.035C761.473 122.058 762.281 130.95 762.928 138.71C763.575 146.147 764.06 151.32 764.383 154.23C764.706 154.877 765.03 155.847 765.353 157.14C765.676 158.433 766.323 159.08 767.293 159.08C768.263 158.757 768.748 158.11 768.748 157.14C769.071 155.847 769.233 154.877 769.233 154.23C769.233 150.673 769.071 145.015 768.748 137.255C768.748 129.172 768.586 120.118 768.263 110.095C767.94 100.072 767.455 89.5633 766.808 78.57C766.485 67.5767 766.161 57.0683 765.838 47.045C765.515 37.0217 765.191 28.2917 764.868 20.855C764.545 13.095 764.383 7.43664 764.383 3.87998C764.06 1.29331 765.03 -2.31266e-05 767.293 -2.31266e-05H799.303C801.566 -2.31266e-05 802.698 0.969984 802.698 2.91V336.59C802.698 338.53 801.566 339.5 799.303 339.5H766.808C765.191 339.5 764.06 338.53 763.413 336.59C763.09 333.357 762.605 327.86 761.958 320.1C761.311 312.017 760.503 302.802 759.533 292.455C758.563 282.108 757.593 271.277 756.623 259.96C755.653 248.643 754.683 237.973 753.713 227.95C753.066 217.927 752.42 209.197 751.773 201.76C751.126 194 750.641 188.827 750.318 186.24C749.995 183.33 749.186 181.875 747.893 181.875C746.6 181.875 745.953 183.33 745.953 186.24C745.953 189.15 745.953 194.485 745.953 202.245C746.276 209.682 746.438 218.412 746.438 228.435C746.761 238.458 747.085 249.128 747.408 260.445C747.731 271.438 748.055 282.108 748.378 292.455C748.701 302.478 748.863 311.532 748.863 319.615C749.186 327.375 749.348 332.872 749.348 336.105C749.348 338.368 748.378 339.5 746.438 339.5H713.943C712.003 339.5 711.033 338.53 711.033 336.59V2.91C711.033 0.969984 712.003 -2.31266e-05 713.943 -2.31266e-05H746.438ZM813.451 336.59V2.91C813.451 0.969984 814.421 -2.31266e-05 816.361 -2.31266e-05H848.856C850.796 -2.31266e-05 851.766 0.969984 851.766 2.91V336.59C851.766 338.53 850.796 339.5 848.856 339.5H816.361C814.421 339.5 813.451 338.53 813.451 336.59ZM898.228 -2.31266e-05C900.168 -2.31266e-05 901.138 0.969984 901.138 2.91V147.925C901.138 151.158 902.431 152.775 905.018 152.775C907.281 152.775 908.413 151.158 908.413 147.925V2.91C908.413 0.969984 909.383 -2.31266e-05 911.323 -2.31266e-05H943.818C945.758 -2.31266e-05 946.728 0.969984 946.728 2.91V147.925C946.728 151.158 946.404 154.877 945.758 159.08C945.111 162.96 943.171 166.032 939.938 168.295C939.291 168.618 938.968 169.103 938.968 169.75C938.968 170.397 939.291 170.882 939.938 171.205C943.818 173.468 945.919 177.187 946.243 182.36C946.566 187.21 946.728 190.443 946.728 192.06V336.59C946.728 338.53 945.758 339.5 943.818 339.5H911.323C909.383 339.5 908.413 338.53 908.413 336.59V191.575C908.413 188.342 907.281 186.725 905.018 186.725C902.431 186.725 901.138 188.342 901.138 191.575V221.645V336.59C901.138 338.53 900.168 339.5 898.228 339.5H865.733C863.793 339.5 862.823 338.53 862.823 336.59V2.91C862.823 0.969984 863.793 -2.31266e-05 865.733 -2.31266e-05H898.228ZM957.663 336.59V2.91C957.663 0.969984 958.633 -2.31266e-05 960.573 -2.31266e-05H993.068C995.008 -2.31266e-05 995.978 0.969984 995.978 2.91V336.59C995.978 338.53 995.008 339.5 993.068 339.5H960.573C958.633 339.5 957.663 338.53 957.663 336.59ZM1017.22 336.59V35.405C1017.22 34.435 1016.57 33.95 1015.28 33.95H1008C1006.06 33.95 1005.09 32.8183 1005.09 30.555V3.39499C1005.09 1.13165 1006.06 -2.31266e-05 1008 -2.31266e-05H1064.26C1066.53 -2.31266e-05 1067.66 1.13165 1067.66 3.39499V31.04C1067.66 32.98 1066.69 33.95 1064.75 33.95H1056.99C1056.02 33.95 1055.53 34.435 1055.53 35.405V336.59C1055.53 338.53 1054.56 339.5 1052.62 339.5H1020.13C1018.19 339.5 1017.22 338.53 1017.22 336.59ZM1112.78 186.725C1112.13 186.725 1111.32 187.048 1110.35 187.695C1109.7 188.018 1109.38 189.312 1109.38 191.575V336.105C1109.38 338.368 1108.25 339.5 1105.99 339.5H1073.98C1072.04 339.5 1071.07 338.692 1071.07 337.075C1071.07 332.872 1071.23 325.435 1071.55 314.765C1071.87 303.772 1072.2 290.838 1072.52 275.965C1072.84 260.768 1073.17 244.117 1073.49 226.01C1074.14 207.58 1074.62 188.988 1074.95 170.235C1075.27 151.482 1075.59 133.052 1075.92 114.945C1076.56 96.515 1076.89 79.8633 1076.89 64.99C1077.21 49.7933 1077.53 36.86 1077.86 26.19C1078.18 15.1967 1078.34 7.75999 1078.34 3.87998C1078.66 1.29331 1079.8 -2.31266e-05 1081.74 -2.31266e-05H1145.76C1148.02 -2.31266e-05 1149.15 0.969984 1149.15 2.91C1149.15 6.78999 1149.15 14.2267 1149.15 25.22C1149.47 35.89 1149.8 48.8233 1150.12 64.02C1150.44 79.2167 1150.77 95.8683 1151.09 113.975C1151.41 132.082 1151.74 150.673 1152.06 169.75C1152.38 188.503 1152.71 206.933 1153.03 225.04C1153.35 243.147 1153.68 259.798 1154 274.995C1154.32 290.192 1154.49 303.287 1154.49 314.28C1154.81 324.95 1154.97 332.225 1154.97 336.105C1154.97 338.368 1153.84 339.5 1151.58 339.5H1120.05C1117.79 339.5 1116.66 338.368 1116.66 336.105V191.575C1116.66 189.635 1116.17 188.342 1115.2 187.695C1114.23 187.048 1113.42 186.725 1112.78 186.725ZM1112.78 152.775C1115.36 152.775 1116.66 151.32 1116.66 148.41V38.315C1116.66 35.0816 1115.36 33.465 1112.78 33.465C1110.51 33.465 1109.38 35.0816 1109.38 38.315V148.41C1109.38 151.32 1110.51 152.775 1112.78 152.775Z" fill="url(#paint0_linear_59_29)"/>
</g>
<defs>
<filter id="filter0_n_59_29" x="0" y="0" width="1154.97" height="339.5" filterUnits="userSpaceOnUse" color-interpolation-filters="sRGB">
<feFlood flood-opacity="0" result="BackgroundImageFix"/>
<feBlend mode="normal" in="SourceGraphic" in2="BackgroundImageFix" result="shape"/>
<feTurbulence type="fractalNoise" baseFrequency="3.3333332538604736 3.3333332538604736" stitchTiles="stitch" numOctaves="3" result="noise" seed="2821" />
<feComponentTransfer in="noise" result="coloredNoise1">
<feFuncR type="linear" slope="2" intercept="-0.5" />
<feFuncG type="linear" slope="2" intercept="-0.5" />
<feFuncB type="linear" slope="2" intercept="-0.5" />
<feFuncA type="discrete" tableValues="1 1 1 1 1 1 1 1 1 1 1 1 1 1 1 1 1 1 1 1 1 1 1 1 1 1 1 1 1 1 1 1 1 1 1 1 1 1 1 1 1 1 1 1 1 1 1 1 1 1 1 0 0 0 0 0 0 0 0 0 0 0 0 0 0 0 0 0 0 0 0 0 0 0 0 0 0 0 0 0 0 0 0 0 0 0 0 0 0 0 0 0 0 0 0 0 0 0 0 0 "/>
</feComponentTransfer>
<feComposite operator="in" in2="shape" in="coloredNoise1" result="noise1Clipped" />
<feComponentTransfer in="noise1Clipped" result="color1">
<feFuncA type="table" tableValues="0 0.1" />
</feComponentTransfer>
<feMerge result="effect1_noise_59_29">
<feMergeNode in="shape" />
<feMergeNode in="color1" />
</feMerge>
</filter>
<linearGradient id="paint0_linear_59_29" x1="577.646" y1="-0.5" x2="577.646" y2="339.5" gradientUnits="userSpaceOnUse">
<stop stop-color="#F3F4E1"/>
<stop offset="1" stop-color="#D3D3D3"/>
</linearGradient>
</defs>
</svg>
